<?xml version="1.0" encoding="UTF-8"?>
<!DOCTYPE svg PUBLIC "-//W3C//DTD SVG 1.1//EN" "http://www.w3.org/Graphics/SVG/1.1/DTD/svg11.dtd">
<!-- Creator: CorelDRAW X7.4 EN Portable -->
<svg xmlns="http://www.w3.org/2000/svg" xml:space="preserve" width="35.9684mm" height="9.6877mm" version="1.1" style="shape-rendering:geometricPrecision; text-rendering:geometricPrecision; image-rendering:optimizeQuality; fill-rule:evenodd; clip-rule:evenodd"
viewBox="0 0 3597 969"
 xmlns:xlink="http://www.w3.org/1999/xlink">
 <defs>
  <style type="text/css">
   <![CDATA[
    .fil0 {fill:#009933}
    .fil2 {fill:#00B223}
    .fil1 {fill:white}
    .fil3 {fill:black;fill-rule:nonzero}
   ]]>
  </style>
 </defs>
 <g id="Layer_x0020_1">
  <metadata id="CorelCorpID_0Corel-Layer"/>
  <g id="_573294680">
   <path class="fil0" d="M457 1c-256,12 -458,225 -457,481 0,78 19,152 52,217l-51 247c-2,14 10,25 23,22l243 -57c62,31 132,49 206,50 261,4 480,-204 488,-465 8,-280 -223,-509 -504,-495z"/>
   <path class="fil1" d="M746 746c-71,72 -165,111 -266,111 -58,0 -115,-14 -167,-40l-34 -16 -149 35 32 -152 -17 -33c-27,-53 -41,-110 -41,-171 0,-100 39,-194 110,-266 71,-70 167,-110 266,-110 101,0 195,39 266,110 72,72 111,166 111,266 0,100 -40,196 -111,266z"/>
   <circle class="fil2" cx="480" cy="480" r="266"/>
   <path class="fil3" d="M2010 195l-177 601 -122 0 -117 -431 -118 431 -124 0 -177 -601 132 0 111 434 119 -434 116 0 119 434 109 -434 129 0zm164 614c-23,0 -44,-4 -63,-11 -19,-6 -36,-16 -50,-29 -15,-12 -26,-27 -34,-44 -8,-17 -12,-36 -12,-56 0,-28 8,-53 23,-75 15,-21 37,-38 64,-50 28,-12 60,-18 97,-18 19,0 36,2 53,5 17,3 33,8 49,14l0 -26c0,-25 -8,-46 -22,-62 -14,-16 -34,-23 -59,-23 -18,0 -35,4 -51,14 -15,9 -26,22 -32,39l-106 -21c7,-26 19,-49 37,-68 19,-20 41,-35 67,-46 27,-10 56,-16 87,-16 29,0 55,5 79,14 23,9 44,22 61,39 17,17 30,37 40,59 9,23 14,49 14,77l0 271 -106 0 -4 -53c-11,20 -29,35 -51,47 -23,13 -50,19 -81,19zm-42 -146c0,16 7,29 20,39 13,10 30,15 51,15 19,0 35,-4 50,-12 15,-8 26,-18 35,-32 8,-14 13,-29 13,-46l0 -5c-13,-5 -26,-9 -40,-12 -14,-3 -28,-5 -43,-5 -26,0 -47,6 -63,16 -15,11 -23,25 -23,42zm379 133l0 -632 118 0 0 242c16,-22 36,-39 60,-51 24,-13 50,-19 79,-19 29,0 56,6 81,18 25,12 47,28 65,50 19,21 34,45 44,74 10,28 16,59 16,92 0,34 -6,65 -16,94 -11,29 -26,54 -45,76 -19,21 -42,38 -68,50 -26,13 -54,19 -84,19 -29,0 -56,-7 -79,-19 -24,-12 -44,-30 -59,-52l-3 58 -109 0zm229 -94c21,0 41,-6 58,-17 17,-11 30,-27 40,-46 10,-20 15,-42 15,-67 0,-24 -5,-47 -15,-66 -10,-20 -23,-35 -40,-46 -17,-11 -37,-17 -58,-17 -21,0 -41,6 -58,17 -17,11 -30,26 -40,46 -10,19 -15,42 -15,66 0,25 5,47 15,67 10,19 23,35 40,46 17,11 37,17 58,17zm439 -474c0,13 -3,24 -9,35 -6,10 -14,18 -25,24 -10,6 -22,9 -34,9 -13,0 -24,-3 -34,-9 -11,-6 -19,-14 -25,-24 -6,-11 -9,-22 -9,-35 0,-13 3,-25 9,-35 6,-10 14,-18 25,-24 10,-6 21,-9 34,-9 12,0 24,3 34,9 11,6 19,14 25,24 6,10 9,22 9,35zm-127 568l0 -447 118 0 0 447 -118 0zm213 0l0 -632 118 0 0 632 -118 0zm213 0l0 -632 119 0 0 632 -119 0z"/>
  </g>
 </g>
</svg>
